<svg width="703" height="740" viewBox="0 0 703 740" fill="none" xmlns="http://www.w3.org/2000/svg">
<path fill-rule="evenodd" clip-rule="evenodd" d="M527.25 323.75H175.75C161.866 323.75 150.643 334.11 150.643 346.875C150.643 359.663 161.866 370 175.75 370H527.25C541.134 370 552.357 359.663 552.357 346.875C552.357 334.11 541.134 323.75 527.25 323.75ZM652.786 647.5C652.786 673.03 630.29 693.75 602.571 693.75H100.429C72.7103 693.75 50.2143 673.03 50.2143 647.5V185C50.2143 159.47 72.7103 138.75 100.429 138.75H175.75V231.25H527.25V138.75H602.571C630.29 138.75 652.786 159.47 652.786 185V647.5ZM225.964 92.5H281.777C281.777 66.97 312.986 46.25 351.5 46.25C390.014 46.25 421.223 66.97 421.223 92.5H477.036V185H225.964V92.5ZM602.571 92.5H527.25V46.25H459.637C437.869 18.7312 397.848 0 351.5 0C305.152 0 265.131 18.7312 243.363 46.25H175.75V92.5H100.429C44.9669 92.5 0 133.917 0 185V647.5C0 698.583 44.9669 740 100.429 740H602.571C658.033 740 703 698.583 703 647.5V185C703 133.917 658.033 92.5 602.571 92.5ZM527.25 555H175.75C161.866 555 150.643 565.36 150.643 578.125C150.643 590.913 161.866 601.25 175.75 601.25H527.25C541.134 601.25 552.357 590.913 552.357 578.125C552.357 565.36 541.134 555 527.25 555ZM527.25 439.375H175.75C161.866 439.375 150.643 449.735 150.643 462.5C150.643 475.288 161.866 485.625 175.75 485.625H527.25C541.134 485.625 552.357 475.288 552.357 462.5C552.357 449.735 541.134 439.375 527.25 439.375Z" fill="white"/>
</svg>
