<svg width="789" height="737" viewBox="0 0 789 737" fill="none" xmlns="http://www.w3.org/2000/svg">
<path fill-rule="evenodd" clip-rule="evenodd" d="M57.7733 683.034C-4.70281e-06 629.069 0 542.213 0 368.5C0 194.789 -4.70281e-06 107.93 57.7733 53.9669C115.546 6.10352e-05 208.531 0 394.5 0C580.467 0 673.455 6.10352e-05 731.225 53.9669C789 107.93 789 194.789 789 368.5C789 542.213 789 629.069 731.225 683.034C673.455 737 580.467 737 394.5 737C208.531 737 115.546 737 57.7733 683.034ZM394.5 543.538C410.84 543.538 424.087 531.164 424.087 515.9V287.824L491.93 351.192C503.485 361.985 522.215 361.985 533.77 351.192C545.325 340.398 545.325 322.902 533.77 312.108L415.42 201.558C409.874 196.374 402.347 193.463 394.5 193.463C386.653 193.463 379.126 196.374 373.58 201.558L255.229 312.108C243.674 322.902 243.674 340.398 255.229 351.192C266.783 361.985 285.517 361.985 297.072 351.192L364.913 287.824V515.9C364.913 531.164 378.16 543.538 394.5 543.538Z" fill="black"/>
</svg>
