<svg width="751" height="851" viewBox="0 0 751 851" fill="none" xmlns="http://www.w3.org/2000/svg">
<path d="M717 338.5V208C717 159.951 678.778 121 631.625 121H119.375C72.2237 121 34 159.951 34 208V338.5M717 338.5V730C717 778.05 678.778 817 631.625 817H119.375C72.2237 817 34 778.05 34 730V338.5M717 338.5H34H717ZM204.75 34V208V34ZM546.25 34V208V34Z" fill="white"/>
<path d="M717 338.5V208C717 159.951 678.778 121 631.625 121H119.375C72.2237 121 34 159.951 34 208V338.5M717 338.5V730C717 778.05 678.778 817 631.625 817H119.375C72.2237 817 34 778.05 34 730V338.5M717 338.5H34M204.75 34V208M546.25 34V208" stroke="black" stroke-width="66.6667" stroke-linecap="round"/>
<path d="M226.094 425.5H140.719C128.931 425.5 119.375 435.238 119.375 447.25V534.25C119.375 546.262 128.931 556 140.719 556H226.094C237.882 556 247.438 546.262 247.438 534.25V447.25C247.438 435.238 237.882 425.5 226.094 425.5Z" fill="black"/>
<path d="M418.188 425.5H332.812C321.025 425.5 311.469 435.238 311.469 447.25V534.25C311.469 546.262 321.025 556 332.812 556H418.188C429.975 556 439.531 546.262 439.531 534.25V447.25C439.531 435.238 429.975 425.5 418.188 425.5Z" fill="black"/>
<path d="M610.281 425.5H524.906C513.118 425.5 503.562 435.238 503.562 447.25V534.25C503.562 546.262 513.118 556 524.906 556H610.281C622.069 556 631.625 546.262 631.625 534.25V447.25C631.625 435.238 622.069 425.5 610.281 425.5Z" fill="black"/>
</svg>
