<svg width="2755" height="2828" viewBox="0 0 2755 2828" fill="none" xmlns="http://www.w3.org/2000/svg">
<path d="M2755 565.466H559.177L448.202 0H0V147.222H338.765L420.843 565.466L729.174 2137.73L2358.44 2139.07V1991.85L838.612 1990.84L769.138 1636.51H2361.21L2755 565.466ZM2555.18 712.688L2433.76 1042.6H652.937L588.074 712.688H2555.18ZM740.548 1489.28L663.389 1096.13H2414.08L2269.6 1489.28H740.548Z" fill="#85CC7A"/>
<path d="M2755 565.466H559.177L448.202 0H0V147.222H338.765L420.843 565.466L729.174 2137.73L2358.44 2139.07V1991.85L838.612 1990.84L769.138 1636.51H2361.21L2755 565.466ZM2555.18 712.688L2433.76 1042.6H652.937L588.074 712.688H2555.18ZM740.548 1489.28L663.389 1096.13H2414.08L2269.6 1489.28H740.548Z" fill="#85CC7A"/>
<path d="M958.186 2413.1C1046.41 2413.1 1118.04 2491.06 1118.04 2587.09C1118.04 2683.12 1046.41 2761.08 958.186 2761.08C869.96 2761.08 798.333 2683.12 798.333 2587.09C798.333 2491.06 869.96 2413.1 958.186 2413.1ZM958.186 2346.18C836.145 2346.18 736.852 2453.92 736.852 2587.09C736.852 2720.26 835.837 2828 958.186 2828C1080.53 2828 1179.52 2720.26 1179.52 2587.09C1179.52 2453.92 1080.23 2346.18 958.186 2346.18ZM2053.79 2413.1C2142.02 2413.1 2213.65 2491.06 2213.65 2587.09C2213.65 2683.12 2142.02 2761.08 2053.79 2761.08C1965.57 2761.08 1893.94 2683.12 1893.94 2587.09C1893.94 2491.06 1965.57 2413.1 2053.79 2413.1ZM2053.79 2346.18C1931.75 2346.18 1832.46 2453.92 1832.46 2587.09C1832.46 2720.26 1931.44 2828 2053.79 2828C2175.83 2828 2275.13 2720.26 2275.13 2587.09C2275.13 2453.92 2175.83 2346.18 2053.79 2346.18ZM1179.21 712.688H1228.4V1489.28H1179.21V712.688ZM1807.86 712.688H1857.05V1489.28H1807.86V712.688Z" fill="#85CC7A"/>
</svg>
