<svg width="803" height="673" viewBox="0 0 803 673" fill="none" xmlns="http://www.w3.org/2000/svg">
<path fill-rule="evenodd" clip-rule="evenodd" d="M777.906 155.308H614.144L664.984 51.7692H727.719C741.596 51.7692 752.812 40.1988 752.812 25.8846C752.812 11.5704 741.596 0 727.719 0H627.344L549.954 155.308H255.153L175.656 0H75.2812C61.4044 0 50.1875 11.5704 50.1875 25.8846C50.1875 40.1988 61.4044 51.7692 75.2812 51.7692H138.016L191.867 155.308H25.0938C11.2169 155.308 0 166.904 0 181.192C0 195.507 11.2169 207.077 25.0938 207.077H50.1875L57.3646 310.615H250.938V207.077H301.125V310.615H501.875V207.077H552.062V310.615H738.484L752.812 207.077H777.906C791.783 207.077 803 195.507 803 181.192C803 166.904 791.783 155.308 777.906 155.308ZM552.062 465.923H716.954L731.307 362.385H552.062V465.923ZM301.125 465.923H501.875V362.385H301.125V465.923ZM250.938 362.385H60.9524L68.1042 465.923H250.938V362.385ZM552.062 621.231H501.875V517.692H301.125V621.231H250.938V517.692H71.6927L75.2812 569.462C75.2812 626.641 120.224 673 175.656 673H602.25C657.682 673 702.625 626.641 702.625 569.462L709.802 517.692H552.062V621.231Z" fill="white"/>
</svg>
