<svg width="8502" height="1325" viewBox="0 0 8502 1325" fill="none" xmlns="http://www.w3.org/2000/svg">
<path d="M0 856V0.499952H43.5V856H0ZM174 856V0.499952H217.5V856H174ZM348 856V0.499952H435V856H348ZM258.1 1324.35C232.967 1324.35 210.733 1318.07 191.4 1305.5C171.1 1292.93 155.15 1274.08 143.55 1248.95C131.95 1222.85 126.15 1190.47 126.15 1151.8C126.15 1111.2 132.433 1077.85 145 1051.75C157.567 1026.62 173.517 1008.25 192.85 996.65C212.183 986.017 232.967 980.7 255.2 980.7C279.367 980.7 300.15 986.5 317.55 998.1C334.95 1009.7 348 1025.65 356.7 1045.95L324.8 1061.9L320.45 1063.35L319 1060.45V1056.1C319 1052.23 316.583 1046.92 311.75 1040.15C304.017 1029.52 295.317 1021.78 285.65 1016.95C275.983 1012.12 265.833 1009.7 255.2 1009.7C226.2 1009.7 203.483 1022.27 187.05 1047.4C171.583 1071.57 163.85 1105.88 163.85 1150.35C163.85 1177.42 167.717 1202.07 175.45 1224.3C184.15 1245.57 195.267 1262 208.8 1273.6C223.3 1285.2 239.25 1291 256.65 1291C270.183 1291 282.75 1287.62 294.35 1280.85C306.917 1273.12 317.067 1262.97 324.8 1250.4L352.35 1269.25C340.75 1287.62 327.7 1301.15 313.2 1309.85C297.733 1319.52 279.367 1324.35 258.1 1324.35ZM478.613 856V0.499952H522.113V856H478.613ZM565.613 856V0.499952H609.113V856H565.613ZM739.613 856V0.499952H826.613V856H739.613ZM771.513 1219.95H662.763L629.413 1318.55H591.713L714.963 976.35H719.313L844.013 1318.55H804.863L771.513 1219.95ZM761.363 1190.95L717.863 1063.35L672.913 1190.95H761.363ZM957.227 856V0.499952H1044.23V856H957.227ZM1174.73 856V0.499952H1218.23V856H1174.73ZM1261.73 856V0.499952H1392.23V856H1261.73ZM1092.08 982.15H1190.68C1229.34 982.15 1257.38 990.85 1274.78 1008.25C1293.14 1024.68 1302.33 1048.37 1302.33 1079.3C1302.33 1098.63 1296.04 1117 1283.48 1134.4C1270.91 1151.8 1254.48 1163.4 1234.18 1169.2L1312.48 1318.55H1270.43L1195.03 1170.65H1129.78V1318.55H1092.08V982.15ZM1195.03 1137.3C1218.23 1137.3 1235.63 1131.98 1247.23 1121.35C1257.86 1111.68 1263.18 1097.67 1263.18 1079.3C1263.18 1060.93 1257.86 1045.95 1247.23 1034.35C1235.63 1023.72 1218.23 1018.4 1195.03 1018.4H1129.78V1137.3H1195.03ZM1435.84 856V0.499952H1522.84V856H1435.84ZM1653.34 856V0.499952H1696.84V856H1653.34ZM1740.34 856V0.499952H1870.84V856H1740.34ZM1570.69 982.15H1669.29C1707.96 982.15 1735.99 990.85 1753.39 1008.25C1771.76 1024.68 1780.94 1048.37 1780.94 1079.3C1780.94 1098.63 1774.66 1117 1762.09 1134.4C1749.52 1151.8 1733.09 1163.4 1712.79 1169.2L1791.09 1318.55H1749.04L1673.64 1170.65H1608.39V1318.55H1570.69V982.15ZM1673.64 1137.3C1696.84 1137.3 1714.24 1131.98 1725.84 1121.35C1736.47 1111.68 1741.79 1097.67 1741.79 1079.3C1741.79 1060.93 1736.47 1045.95 1725.84 1034.35C1714.24 1023.72 1696.84 1018.4 1673.64 1018.4H1608.39V1137.3H1673.64ZM1914.45 856V0.499952H2001.45V856H1914.45ZM2131.95 856V0.499952H2175.45V856H2131.95ZM2305.95 856V0.499952H2349.45V856H2305.95ZM2062.35 1286.65H2129.05V1014.05H2066.7V982.15H2233.45V1014.05H2166.75V1286.65H2236.35V1318.55H2062.35V1286.65ZM2393.07 856V0.499952H2436.57V856H2393.07ZM2480.07 856V0.499952H2610.57V856H2480.07ZM2741.07 856V0.499952H2828.07V856H2741.07ZM2525.02 982.15H2561.27L2701.92 1231.55V982.15H2743.97V986.5C2741.07 988.433 2739.62 990.85 2739.62 993.75C2738.65 995.683 2738.17 1000.03 2738.17 1006.8V1318.55H2709.17L2559.82 1054.65V1318.55H2525.02V982.15ZM2871.68 856V0.499952H2958.68V856H2871.68ZM3089.18 856V0.499952H3132.68V856H3089.18ZM3176.18 856V0.499952H3219.68V856H3176.18ZM3003.63 982.15H3047.13V986.5C3045.2 988.433 3043.75 990.85 3042.78 993.75C3042.78 995.683 3042.78 1000.03 3042.78 1006.8V1125.7H3173.28V982.15H3218.23V986.5C3216.3 988.433 3214.85 990.85 3213.88 993.75C3213.88 995.683 3213.88 1000.03 3213.88 1006.8V1318.55H3173.28V1159.05H3042.78V1318.55H3003.63V982.15ZM3350.29 856V0.499952H3393.79V856H3350.29ZM3524.29 856V0.499952H3654.79V856H3524.29ZM3698.29 856V0.499952H3785.29V856H3698.29ZM3589.54 1324.35C3550.88 1324.35 3521.39 1309.37 3501.09 1279.4C3479.83 1249.43 3469.19 1206.9 3469.19 1151.8C3469.19 1098.63 3479.83 1056.58 3501.09 1025.65C3522.36 995.683 3551.84 980.7 3589.54 980.7C3627.24 980.7 3656.73 995.683 3677.99 1025.65C3699.26 1056.58 3709.89 1098.63 3709.89 1151.8C3709.89 1206.9 3699.26 1249.43 3677.99 1279.4C3657.69 1309.37 3628.21 1324.35 3589.54 1324.35ZM3589.54 1291C3615.64 1291 3635.46 1279.4 3648.99 1256.2C3663.49 1232.03 3670.74 1197.23 3670.74 1151.8C3670.74 1109.27 3663.49 1075.43 3648.99 1050.3C3634.49 1026.13 3614.68 1014.05 3589.54 1014.05C3564.41 1014.05 3544.59 1026.13 3530.09 1050.3C3515.59 1075.43 3508.34 1109.27 3508.34 1151.8C3508.34 1197.23 3515.11 1232.03 3528.64 1256.2C3543.14 1279.4 3563.44 1291 3589.54 1291ZM3828.91 856V0.499952H3915.91V856H3828.91ZM3959.41 856V0.499952H4046.41V856H3959.41ZM4133.41 856V0.499952H4220.41V856H4133.41ZM4307.52 856V0.499952H4351.02V856H4307.52ZM4394.52 856V0.499952H4481.52V856H4394.52ZM4612.02 856V0.499952H4655.52V856H4612.02ZM4440.92 982.15H4519.22C4547.25 982.15 4569 986.017 4584.47 993.75C4600.9 1001.48 4614.92 1013.08 4626.52 1028.55C4648.75 1057.55 4659.87 1098.63 4659.87 1151.8C4657.94 1206.9 4645.37 1248.47 4622.17 1276.5C4598.97 1305.5 4562.72 1319.52 4513.42 1318.55H4440.92V982.15ZM4510.52 1289.55C4584.95 1289.55 4622.17 1244.6 4622.17 1154.7C4622.17 1109.27 4613.95 1074.47 4597.52 1050.3C4580.12 1026.13 4553.05 1014.05 4516.32 1014.05H4477.17V1289.55H4510.52ZM4786.13 856V0.499952H4829.63V856H4786.13ZM4960.13 856V0.499952H5047.13V856H4960.13ZM5090.63 856V0.499952H5134.13V856H5090.63ZM4922.43 982.15H5128.33V1015.5H4957.23V1125.7H5099.33V1160.5H4957.23V1285.2H5126.88V1318.55H4922.43V982.15ZM5264.75 856V0.499952H5351.75V856H5264.75ZM5395.25 856V0.499952H5482.25V856H5395.25ZM5569.25 856V0.499952H5656.25V856H5569.25ZM5743.36 856V0.499952H5786.86V856H5743.36ZM5917.36 856V0.499952H5960.86V856H5917.36ZM6091.36 856V0.499952H6178.36V856H6091.36ZM6001.46 1324.35C5976.33 1324.35 5954.09 1318.07 5934.76 1305.5C5914.46 1292.93 5898.51 1274.08 5886.91 1248.95C5875.31 1222.85 5869.51 1190.47 5869.51 1151.8C5869.51 1111.2 5875.79 1077.85 5888.36 1051.75C5900.93 1026.62 5916.88 1008.25 5936.21 996.65C5955.54 986.017 5976.33 980.7 5998.56 980.7C6022.73 980.7 6043.51 986.5 6060.91 998.1C6078.31 1009.7 6091.36 1025.65 6100.06 1045.95L6068.16 1061.9L6063.81 1063.35L6062.36 1060.45V1056.1C6062.36 1052.23 6059.94 1046.92 6055.11 1040.15C6047.38 1029.52 6038.68 1021.78 6029.01 1016.95C6019.34 1012.12 6009.19 1009.7 5998.56 1009.7C5969.56 1009.7 5946.84 1022.27 5930.41 1047.4C5914.94 1071.57 5907.21 1105.88 5907.21 1150.35C5907.21 1177.42 5911.08 1202.07 5918.81 1224.3C5927.51 1245.57 5938.63 1262 5952.16 1273.6C5966.66 1285.2 5982.61 1291 6000.01 1291C6013.54 1291 6026.11 1287.62 6037.71 1280.85C6050.28 1273.12 6060.43 1262.97 6068.16 1250.4L6095.71 1269.25C6084.11 1287.62 6071.06 1301.15 6056.56 1309.85C6041.09 1319.52 6022.73 1324.35 6001.46 1324.35ZM6221.97 856V0.499952H6265.47V856H6221.97ZM6395.97 856V0.499952H6526.47V856H6395.97ZM6569.97 856V0.499952H6656.97V856H6569.97ZM6461.22 1324.35C6422.56 1324.35 6393.07 1309.37 6372.77 1279.4C6351.51 1249.43 6340.87 1206.9 6340.87 1151.8C6340.87 1098.63 6351.51 1056.58 6372.77 1025.65C6394.04 995.683 6423.52 980.7 6461.22 980.7C6498.92 980.7 6528.41 995.683 6549.67 1025.65C6570.94 1056.58 6581.57 1098.63 6581.57 1151.8C6581.57 1206.9 6570.94 1249.43 6549.67 1279.4C6529.37 1309.37 6499.89 1324.35 6461.22 1324.35ZM6461.22 1291C6487.32 1291 6507.14 1279.4 6520.67 1256.2C6535.17 1232.03 6542.42 1197.23 6542.42 1151.8C6542.42 1109.27 6535.17 1075.43 6520.67 1050.3C6506.17 1026.13 6486.36 1014.05 6461.22 1014.05C6436.09 1014.05 6416.27 1026.13 6401.77 1050.3C6387.27 1075.43 6380.02 1109.27 6380.02 1151.8C6380.02 1197.23 6386.79 1232.03 6400.32 1256.2C6414.82 1279.4 6435.12 1291 6461.22 1291ZM6700.59 856V0.499952H6744.09V856H6700.59ZM6787.59 856V0.499952H6918.09V856H6787.59ZM6961.59 856V0.499952H7048.59V856H6961.59ZM6826.74 982.15H6857.19L6939.84 1147.45L7023.94 982.15H7052.94V1318.55H7016.69V1064.8L6944.19 1201.1H6929.69L6861.54 1066.25V1318.55H6826.74V982.15ZM7179.2 856V0.499952H7309.7V856H7179.2ZM7353.2 856V0.499952H7483.7V856H7353.2ZM7527.2 856V0.499952H7614.2V856H7527.2ZM7315.5 982.15H7422.8C7458.57 982.15 7485.15 991.333 7502.55 1009.7C7520.92 1027.1 7530.1 1049.82 7530.1 1077.85C7530.1 1104.92 7521.4 1127.15 7504 1144.55C7486.6 1161.95 7460.5 1170.65 7425.7 1170.65H7354.65V1318.55H7315.5V982.15ZM7421.35 1137.3C7445.52 1137.3 7462.92 1131.98 7473.55 1121.35C7485.15 1111.68 7490.95 1097.67 7490.95 1079.3C7490.95 1060.93 7485.15 1046.43 7473.55 1035.8C7461.95 1024.2 7445.03 1018.4 7422.8 1018.4H7354.65V1137.3H7421.35ZM7657.81 856V0.499952H7744.81V856H7657.81ZM7875.31 856V0.499952H7918.81V856H7875.31ZM7962.31 856V0.499952H8092.81V856H7962.31ZM7792.66 982.15H7891.26C7929.93 982.15 7957.96 990.85 7975.36 1008.25C7993.73 1024.68 8002.91 1048.37 8002.91 1079.3C8002.91 1098.63 7996.63 1117 7984.06 1134.4C7971.5 1151.8 7955.06 1163.4 7934.76 1169.2L8013.06 1318.55H7971.01L7895.61 1170.65H7830.36V1318.55H7792.66V982.15ZM7895.61 1137.3C7918.81 1137.3 7936.21 1131.98 7947.81 1121.35C7958.45 1111.68 7963.76 1097.67 7963.76 1079.3C7963.76 1060.93 7958.45 1045.95 7947.81 1034.35C7936.21 1023.72 7918.81 1018.4 7895.61 1018.4H7830.36V1137.3H7895.61ZM8136.43 856V0.499952H8179.93V856H8136.43ZM8223.43 856V0.499952H8266.93V856H8223.43ZM8397.43 856V0.499952H8484.43V856H8397.43ZM8429.33 1219.95H8320.58L8287.23 1318.55H8249.53L8372.78 976.35H8377.13L8501.83 1318.55H8462.68L8429.33 1219.95ZM8419.18 1190.95L8375.68 1063.35L8330.73 1190.95H8419.18Z" fill="white"/>
</svg>
