<svg width="821" height="783" viewBox="0 0 821 783" fill="none" xmlns="http://www.w3.org/2000/svg">
<path fill-rule="evenodd" clip-rule="evenodd" d="M60.1165 57.3351C-4.89354e-06 114.666 0 206.947 0 391.5C0 576.055 -4.89354e-06 668.332 60.1165 725.666C120.233 783 216.988 783 410.5 783C604.01 783 700.769 783 760.882 725.666C821 668.332 821 576.055 821 391.5C821 206.947 821 114.666 760.882 57.3351C700.769 0 604.01 0 410.5 0C216.988 0 120.233 0 60.1165 57.3351ZM410.5 205.537C427.503 205.537 441.288 218.684 441.288 234.9V477.213L511.881 409.889C523.905 398.422 543.395 398.422 555.419 409.889C567.442 421.356 567.442 439.944 555.419 451.411L432.269 568.862C426.497 574.369 418.665 577.462 410.5 577.462C402.335 577.462 394.503 574.369 388.731 568.862L265.58 451.411C253.557 439.944 253.557 421.356 265.58 409.889C277.603 398.422 297.097 398.422 309.12 409.889L379.712 477.213V234.9C379.712 218.684 393.497 205.537 410.5 205.537Z" fill="black"/>
</svg>
